<svg width="72" height="21" viewBox="0 0 72 21" fill="none" xmlns="http://www.w3.org/2000/svg">
<path fill-rule="evenodd" clip-rule="evenodd" d="M5.16847 3.8039L9.03689 5.77812L12.9053 8.33928L16.7737 6.09827L20.6422 4.12404L24.5106 3.35036L28.379 4.31079L32.2474 9.27304L36.1158 1.98974L39.9843 1.50952L43.8527 4.31079L47.7211 10.7137L51.5895 7.37885L55.4579 3.08357L59.3264 8.27259L63.1948 10.9271L67.0632 9.24636L71.7053 4.97776V20.1847H0.526367V9.43311L5.16847 3.8039Z" fill="url(#paint0_linear_6001_666)"/>
<path d="M1.30029 9.43312L5.16871 3.8039L9.03713 5.77812L12.9056 8.446L16.774 6.09827L20.6424 4.12404L24.5108 3.35036L28.3792 4.31079L32.2477 9.27304L36.1161 1.98974L39.9845 1.50952L43.8529 4.31079L47.7213 10.7137L51.5898 7.37885L55.4582 3.08357L59.3266 8.71279L63.195 10.9271L67.0634 9.24636L70.9319 5.08448" stroke="#539BBB" stroke-width="1.16053" stroke-linecap="round" stroke-linejoin="round"/>
<defs>
<linearGradient id="paint0_linear_6001_666" x1="-14.3026" y1="-6.27178" x2="-14.3026" y2="20.1847" gradientUnits="userSpaceOnUse">
<stop stop-color="#4592FF"/>
<stop offset="1" stop-color="white" stop-opacity="0.01"/>
</linearGradient>
</defs>
</svg>
