<svg width="72" height="20" viewBox="0 0 72 20" fill="none" xmlns="http://www.w3.org/2000/svg">
<path fill-rule="evenodd" clip-rule="evenodd" d="M4.95802 7.44688L8.82644 8.64743L12.6949 5.01912L16.5633 7.4202L20.4317 13.1828H24.3001L28.1685 4.85904L32.037 2.85814L35.9054 2.53799L39.7738 15.9841L43.6422 5.63273L47.5107 3.52511L51.3791 1.73763L56.0212 2.85814L59.1159 1.084L62.9843 0.643799L66.8528 15.9841L71.4949 14.8102V19.1855H0.315918V11.5287L4.95802 7.44688Z" fill="url(#paint0_linear_6001_661)"/>
<path d="M1.08936 11.5287L4.95778 7.44688L8.8262 8.64743L12.6946 5.12583L16.563 7.4202L20.4315 13.1828H24.2999L28.1683 4.85904L32.0367 2.85814L35.9051 2.53799L39.7736 15.9841L43.642 5.63273L47.5104 3.52511L51.3788 1.73763L55.2472 2.85814L59.1157 0.750514L62.9841 0.643799L66.8525 15.9841L70.7209 14.9169" stroke="#539BBB" stroke-width="1.16053" stroke-linecap="round" stroke-linejoin="round"/>
<defs>
<linearGradient id="paint0_linear_6001_661" x1="-14.513" y1="-7.08193" x2="-14.513" y2="19.1855" gradientUnits="userSpaceOnUse">
<stop stop-color="#4592FF"/>
<stop offset="1" stop-color="white" stop-opacity="0.01"/>
</linearGradient>
</defs>
</svg>
