<svg width="72" height="21" viewBox="0 0 72 21" fill="none" xmlns="http://www.w3.org/2000/svg">
<path fill-rule="evenodd" clip-rule="evenodd" d="M4.77882 3.8039L8.64724 5.77812L12.5157 8.33928L16.3841 6.09827L20.2525 4.12404L24.1209 3.35036L27.9893 4.31079L31.8578 9.27304L35.7262 1.98974L39.5946 1.50952L43.463 4.31079L47.3315 10.7137L51.1999 7.37885L55.0683 3.08357L58.9367 8.27259L62.8051 10.9271L66.6736 9.24636L71.3157 4.97776V20.1847H0.136719V9.43311L4.77882 3.8039Z" fill="url(#paint0_linear_6001_651)"/>
<path d="M0.910645 9.43312L4.77906 3.8039L8.64749 5.77812L12.5159 8.446L16.3843 6.09827L20.2527 4.12404L24.1212 3.35036L27.9896 4.31079L31.858 9.27304L35.7264 1.98974L39.5948 1.50952L43.4633 4.31079L47.3317 10.7137L51.2001 7.37885L55.0685 3.08357L58.937 8.71279L62.8054 10.9271L66.6738 9.24636L70.5422 5.08448" stroke="#4592FF" stroke-width="1.16053" stroke-linecap="round" stroke-linejoin="round"/>
<defs>
<linearGradient id="paint0_linear_6001_651" x1="-14.6922" y1="-6.27178" x2="-14.6922" y2="20.1847" gradientUnits="userSpaceOnUse">
<stop stop-color="#4592FF"/>
<stop offset="1" stop-color="white" stop-opacity="0.01"/>
</linearGradient>
</defs>
</svg>
