<svg width="72" height="20" viewBox="0 0 72 20" fill="none" xmlns="http://www.w3.org/2000/svg">
<path fill-rule="evenodd" clip-rule="evenodd" d="M5.24757 5.12523L9.11599 9.42051L12.9844 11.208L16.8528 12.8354L20.7213 8.54011L24.5897 17.8243L28.4581 14.1427L32.3265 7.49964L36.1949 3.31107L40.0634 6.69927L43.9318 4.08476L47.8002 8.94029L51.6686 10.2475L56.3107 5.95227L59.4055 1.08339L63.2739 1.41688L67.1423 8.24664L71.7844 0.109619V19.1849H0.605469V11.5281L5.24757 5.12523Z" fill="url(#paint0_linear_6001_671)"/>
<path d="M1.37939 10.7544L5.24781 5.1252L9.11624 9.42048L12.9847 11.3147L16.8531 12.8354L20.7215 8.54008L24.5899 17.8243L28.4583 14.1426L32.3268 7.49961L36.1952 3.31104L40.0636 6.69925L43.932 4.08473L47.6564 8.88309L51.6689 10.2475L55.5373 6.72592L59.4057 1.52357L63.2741 2.19053L67.1425 8.24661L71.011 0.98999" stroke="#539BBB" stroke-width="1.16053" stroke-linecap="round" stroke-linejoin="round"/>
<defs>
<linearGradient id="paint0_linear_6001_671" x1="-14.2235" y1="-7.83843" x2="-14.2235" y2="19.1849" gradientUnits="userSpaceOnUse">
<stop stop-color="#4592FF"/>
<stop offset="1" stop-color="white" stop-opacity="0.01"/>
</linearGradient>
</defs>
</svg>
