<svg width="72" height="21" viewBox="0 0 72 21" fill="none" xmlns="http://www.w3.org/2000/svg">
<path fill-rule="evenodd" clip-rule="evenodd" d="M5.45802 16.1828L9.32644 13.515L13.1949 16.8498L17.0633 11.5141L20.9317 14.1819H24.8001L28.6685 8.17921L32.537 6.17831L36.4054 8.17921L40.2738 1.50952L44.1422 8.17921L48.0107 6.84527L51.8791 3.51043L56.5212 6.17831L59.6159 5.17785L63.4843 5.51134L67.3528 1.50952L71.9949 8.84618V20.1847H0.815918V14.8489L5.45802 16.1828Z" fill="url(#paint0_linear_6001_676)"/>
<path d="M1.58984 14.8489L5.45826 16.1828L9.32668 13.515L13.1951 16.1828L17.0635 11.5141L20.9319 14.1819H24.8004L28.6688 8.17921L32.5372 6.17831L36.4056 8.17921L40.274 1.50952L44.1425 8.17921L48.0109 6.84527L51.8793 3.51043L55.7477 6.17831L59.6161 4.84437L63.4846 5.51134L67.353 1.50952L71.2214 8.17921" stroke="#539BBB" stroke-width="1.16053" stroke-linecap="round" stroke-linejoin="round"/>
<defs>
<linearGradient id="paint0_linear_6001_676" x1="-14.013" y1="-6.27178" x2="-14.013" y2="20.1847" gradientUnits="userSpaceOnUse">
<stop stop-color="#4592FF"/>
<stop offset="1" stop-color="white" stop-opacity="0.01"/>
</linearGradient>
</defs>
</svg>
