<svg width="231" height="48" viewBox="0 0 231 48" fill="none" xmlns="http://www.w3.org/2000/svg">
<path d="M3.88916 13.4074V32.963C3.88916 33.6807 4.32069 34.328 4.98318 34.604L21.6669 41.5556M3.88916 13.4074L20.2994 6.5698C21.1746 6.20513 22.1592 6.20513 23.0345 6.5698L30.5558 9.7037M3.88916 13.4074L12.778 17.1111M21.6669 20.8148V41.5556M21.6669 20.8148L39.4447 13.4074M21.6669 20.8148L12.778 17.1111M21.6669 41.5556L38.3507 34.604C39.0132 34.328 39.4447 33.6807 39.4447 32.963V13.4074M39.4447 13.4074L30.5558 9.7037M12.778 17.1111L30.5558 9.7037" stroke="#FEFEFE" stroke-width="2.66667" stroke-linejoin="round"/>
<path d="M55.1598 23.2888C55.1598 20.3591 55.8141 17.7422 57.1225 15.4382C58.4594 13.1057 60.2656 11.2995 62.5412 10.0195C64.8452 8.71106 67.4194 8.05683 70.2638 8.05683C73.5918 8.05683 76.5074 8.91017 79.0105 10.6168C81.5136 12.3235 83.263 14.6844 84.2585 17.6995H77.3892C76.7065 16.2773 75.7394 15.2106 74.4878 14.4995C73.2647 13.7884 71.8425 13.4328 70.2212 13.4328C68.4861 13.4328 66.9358 13.8453 65.5705 14.6702C64.2336 15.4666 63.1812 16.6044 62.4132 18.0835C61.6736 19.5626 61.3038 21.2977 61.3038 23.2888C61.3038 25.2515 61.6736 26.9866 62.4132 28.4942C63.1812 29.9733 64.2336 31.1253 65.5705 31.9502C66.9358 32.7466 68.4861 33.1448 70.2212 33.1448C71.8425 33.1448 73.2647 32.7893 74.4878 32.0782C75.7394 31.3386 76.7065 30.2577 77.3892 28.8355H84.2585C83.263 31.8791 81.5136 34.2542 79.0105 35.9608C76.5358 37.6391 73.6203 38.4782 70.2638 38.4782C67.4194 38.4782 64.8452 37.8382 62.5412 36.5582C60.2656 35.2497 58.4594 33.4435 57.1225 31.1395C55.8141 28.8355 55.1598 26.2186 55.1598 23.2888ZM87.8245 26.3182C87.8245 23.9288 88.2938 21.8097 89.2325 19.9608C90.1996 18.1119 91.4938 16.6897 93.1152 15.6942C94.7649 14.6986 96.5996 14.2008 98.6192 14.2008C100.383 14.2008 101.919 14.5564 103.227 15.2675C104.564 15.9786 105.631 16.8746 106.427 17.9555V14.5848H112.443V38.2222H106.427V34.7662C105.659 35.8755 104.593 36.7999 103.227 37.5395C101.89 38.2506 100.34 38.6062 98.5765 38.6062C96.5854 38.6062 94.7649 38.0942 93.1152 37.0702C91.4938 36.0462 90.1996 34.6097 89.2325 32.7608C88.2938 30.8835 87.8245 28.7359 87.8245 26.3182ZM106.427 26.4035C106.427 24.9528 106.143 23.7155 105.574 22.6915C105.005 21.6391 104.237 20.8426 103.27 20.3022C102.303 19.7333 101.265 19.4488 100.155 19.4488C99.0458 19.4488 98.0218 19.7191 97.0832 20.2595C96.1445 20.7999 95.3765 21.5964 94.7792 22.6488C94.2103 23.6728 93.9258 24.8959 93.9258 26.3182C93.9258 27.7404 94.2103 28.9919 94.7792 30.0728C95.3765 31.1253 96.1445 31.9359 97.0832 32.5048C98.0503 33.0737 99.0743 33.3582 100.155 33.3582C101.265 33.3582 102.303 33.0879 103.27 32.5475C104.237 31.9786 105.005 31.1822 105.574 30.1582C106.143 29.1057 106.427 27.8542 106.427 26.4035ZM125.232 19.4915V30.9262C125.232 31.7226 125.417 32.3057 125.787 32.6755C126.185 33.0168 126.839 33.1875 127.749 33.1875H130.523V38.2222H126.768C121.733 38.2222 119.216 35.7759 119.216 30.8835V19.4915H116.4V14.5848H119.216V8.7395H125.232V14.5848H130.523V19.4915H125.232ZM133.283 26.3182C133.283 23.9288 133.752 21.8097 134.691 19.9608C135.658 18.1119 136.952 16.6897 138.574 15.6942C140.223 14.6986 142.058 14.2008 144.078 14.2008C145.841 14.2008 147.377 14.5564 148.686 15.2675C150.022 15.9786 151.089 16.8746 151.886 17.9555V14.5848H157.902V38.2222H151.886V34.7662C151.118 35.8755 150.051 36.7999 148.686 37.5395C147.349 38.2506 145.798 38.6062 144.035 38.6062C142.044 38.6062 140.223 38.0942 138.574 37.0702C136.952 36.0462 135.658 34.6097 134.691 32.7608C133.752 30.8835 133.283 28.7359 133.283 26.3182ZM151.886 26.4035C151.886 24.9528 151.601 23.7155 151.032 22.6915C150.463 21.6391 149.695 20.8426 148.728 20.3022C147.761 19.7333 146.723 19.4488 145.614 19.4488C144.504 19.4488 143.48 19.7191 142.542 20.2595C141.603 20.7999 140.835 21.5964 140.238 22.6488C139.669 23.6728 139.384 24.8959 139.384 26.3182C139.384 27.7404 139.669 28.9919 140.238 30.0728C140.835 31.1253 141.603 31.9359 142.542 32.5048C143.509 33.0737 144.533 33.3582 145.614 33.3582C146.723 33.3582 147.761 33.0879 148.728 32.5475C149.695 31.9786 150.463 31.1822 151.032 30.1582C151.601 29.1057 151.886 27.8542 151.886 26.4035ZM169.709 6.64883V38.2222H163.736V6.64883H169.709ZM178.64 11.7688C177.587 11.7688 176.706 11.4417 175.995 10.7875C175.312 10.1048 174.971 9.26572 174.971 8.27017C174.971 7.27461 175.312 6.44972 175.995 5.7955C176.706 5.11283 177.587 4.7715 178.64 4.7715C179.692 4.7715 180.56 5.11283 181.243 5.7955C181.954 6.44972 182.309 7.27461 182.309 8.27017C182.309 9.26572 181.954 10.1048 181.243 10.7875C180.56 11.4417 179.692 11.7688 178.64 11.7688ZM181.584 14.5848V38.2222H175.611V14.5848H181.584ZM200.542 38.2222L195.678 30.8835L191.368 38.2222H184.968L192.691 26.3608L184.883 14.5848H191.624L196.446 21.8808L200.798 14.5848H207.198L199.432 26.3608L207.283 38.2222H200.542Z" fill="white"/>
</svg>
